<mxfile host="app.diagrams.net" modified="2024-03-21T01:56:49.612Z" agent="Mozilla/5.0 (Windows NT 10.0; Win64; x64) AppleWebKit/537.36 (KHTML, like Gecko) Chrome/122.0.0.0 Safari/537.36 Edg/122.0.0.0" version="24.0.7" etag="nshE7D99Mk7SF4v8pYjM" type="github">
  <diagram name="第 1 页" id="iPmQ9K_U2gNS-y8LuCwz">
    <mxGraphModel>
      <root>
        <mxCell id="0" />
        <mxCell id="1" parent="0" />
      </root>
    </mxGraphModel>
  </diagram>
</mxfile>
